<svg data-v-fde0c5aa="" xmlns="http://www.w3.org/2000/svg" viewBox="0 0 300 300" class="iconLeftSlogan"><!----><defs data-v-fde0c5aa=""><!----></defs><rect data-v-fde0c5aa="" fill="transparent" x="0" y="0" width="300px" height="300px" class="logo-background-square"></rect><defs data-v-fde0c5aa=""><!----></defs><g data-v-fde0c5aa="" id="ad98d5ce-1c74-457f-827e-ad0828f29c98" fill="#000000" transform="matrix(2.355975828508459,0,0,2.355975828508459,118.85348952675487,128.24368045284734)"><path d="M3.61 0.98L3.61 3.08L5.52 3.08L5.52 5.01L3.61 5.01L3.61 7.69L3.61 7.69Q3.61 8.33 3.88 8.55L3.88 8.55L3.88 8.55Q4.14 8.78 4.70 8.78L4.70 8.78L4.70 8.78Q5.18 8.78 5.38 8.68L5.38 8.68L5.38 10.50L5.38 10.50Q5.05 10.68 4.19 10.68L4.19 10.68L4.19 10.68Q1.40 10.68 1.40 7.92L1.40 7.92L1.40 5.01L0.27 5.01L0.27 3.08L1.40 3.08L1.40 0.98L3.61 0.98ZM13.40 6.59L13.40 7.59L8.67 7.59L8.67 7.59Q8.72 8.34 9.07 8.67L9.07 8.67L9.07 8.67Q9.42 9.00 10.07 9.00L10.07 9.00L10.07 9.00Q10.63 9.00 10.97 8.74L10.97 8.74L10.97 8.74Q11.31 8.47 11.31 8.12L11.31 8.12L13.40 8.12L13.40 8.18L13.40 8.18Q13.40 9.27 12.51 9.97L12.51 9.97L12.51 9.97Q11.62 10.68 10.05 10.68L10.05 10.68L10.05 10.68Q8.27 10.68 7.36 9.67L7.36 9.67L7.36 9.67Q6.45 8.67 6.45 6.99L6.45 6.99L6.45 6.59L6.45 6.59Q6.45 4.93 7.36 3.91L7.36 3.91L7.36 3.91Q8.27 2.90 9.97 2.90L9.97 2.90L9.97 2.90Q11.66 2.90 12.53 3.91L12.53 3.91L12.53 3.91Q13.40 4.91 13.40 6.59L13.40 6.59ZM11.17 5.99L11.17 5.99Q11.07 4.58 9.93 4.58L9.93 4.58L9.93 4.58Q8.78 4.58 8.68 5.99L8.68 5.99L11.17 5.99ZM20.96 10.50L18.97 10.50L18.83 9.73L18.83 9.73Q17.95 10.68 16.51 10.68L16.51 10.68L16.51 10.68Q15.33 10.68 14.78 10.06L14.78 10.06L14.78 10.06Q14.24 9.44 14.24 8.46L14.24 8.46L14.24 8.32L14.24 8.32Q14.24 7.20 14.92 6.66L14.92 6.66L14.92 6.66Q15.60 6.13 16.90 5.94L16.90 5.94L18.61 5.67L18.61 5.67Q18.59 5.10 18.37 4.84L18.37 4.84L18.37 4.84Q18.14 4.58 17.60 4.58L17.60 4.58L17.60 4.58Q16.60 4.58 16.60 5.53L16.60 5.53L14.52 5.53L14.52 5.40L14.52 5.40Q14.52 4.30 15.25 3.60L15.25 3.60L15.25 3.60Q15.97 2.90 17.67 2.90L17.67 2.90L17.67 2.90Q19.40 2.90 20.11 3.60L20.11 3.60L20.11 3.60Q20.82 4.30 20.82 5.73L20.82 5.73L20.82 8.40L20.96 10.50ZM17.32 8.89L17.32 8.89L17.32 8.89Q18.07 8.89 18.61 8.33L18.61 8.33L18.61 6.97L17.35 7.17L17.35 7.17Q16.44 7.32 16.44 8.05L16.44 8.05L16.44 8.13L16.44 8.13Q16.44 8.46 16.65 8.67L16.65 8.67L16.65 8.67Q16.87 8.89 17.32 8.89ZM24.14 6.54L24.14 7.04L24.14 7.04Q24.14 8.78 25.33 8.78L25.33 8.78L25.33 8.78Q25.84 8.78 26.12 8.50L26.12 8.50L26.12 8.50Q26.39 8.22 26.39 7.76L26.39 7.76L28.48 7.76L28.48 8.06L28.48 8.06Q28.48 9.25 27.66 9.97L27.66 9.97L27.66 9.97Q26.84 10.68 25.28 10.68L25.28 10.68L25.28 10.68Q23.59 10.68 22.76 9.70L22.76 9.70L22.76 9.70Q21.92 8.72 21.92 7.04L21.92 7.04L21.92 6.54L21.92 6.54Q21.92 4.86 22.76 3.88L22.76 3.88L22.76 3.88Q23.59 2.90 25.28 2.90L25.28 2.90L25.28 2.90Q26.84 2.90 27.66 3.64L27.66 3.64L27.66 3.64Q28.48 4.38 28.48 5.64L28.48 5.64L28.48 5.96L26.39 5.96L26.39 5.96Q26.39 4.80 25.33 4.80L25.33 4.80L25.33 4.80Q24.14 4.80 24.14 6.54L24.14 6.54ZM29.64-0.70L31.85-0.70L31.85 3.79L31.85 3.79Q32.65 2.90 34.03 2.90L34.03 2.90L34.03 2.90Q35.21 2.90 35.77 3.63L35.77 3.63L35.77 3.63Q36.33 4.35 36.33 5.47L36.33 5.47L36.33 10.50L34.13 10.50L34.13 5.84L34.13 5.84Q34.13 4.80 33.15 4.80L33.15 4.80L33.15 4.80Q32.30 4.80 31.85 5.50L31.85 5.50L31.85 10.50L29.64 10.50L29.64-0.70ZM38.01 4.10L37.66-0.42L40.05-0.42L39.70 4.10L38.01 4.10ZM48.08 6.59L48.08 7.59L43.34 7.59L43.34 7.59Q43.40 8.34 43.75 8.67L43.75 8.67L43.75 8.67Q44.10 9.00 44.74 9.00L44.74 9.00L44.74 9.00Q45.30 9.00 45.65 8.74L45.65 8.74L45.65 8.74Q45.99 8.47 45.99 8.12L45.99 8.12L48.08 8.12L48.08 8.18L48.08 8.18Q48.08 9.27 47.19 9.97L47.19 9.97L47.19 9.97Q46.30 10.68 44.73 10.68L44.73 10.68L44.73 10.68Q42.95 10.68 42.04 9.67L42.04 9.67L42.04 9.67Q41.13 8.67 41.13 6.99L41.13 6.99L41.13 6.59L41.13 6.59Q41.13 4.93 42.04 3.91L42.04 3.91L42.04 3.91Q42.95 2.90 44.65 2.90L44.65 2.90L44.65 2.90Q46.34 2.90 47.21 3.91L47.21 3.91L47.21 3.91Q48.08 4.91 48.08 6.59L48.08 6.59ZM45.85 5.99L45.85 5.99Q45.75 4.58 44.60 4.58L44.60 4.58L44.60 4.58Q43.46 4.58 43.36 5.99L43.36 5.99L45.85 5.99ZM59.91 5.39L59.91 10.50L57.71 10.50L57.71 5.74L57.71 5.74Q57.71 4.80 56.83 4.80L56.83 4.80L56.83 4.80Q56.11 4.80 55.68 5.45L55.68 5.45L55.68 10.50L53.48 10.50L53.48 5.74L53.48 5.74Q53.48 4.80 52.60 4.80L52.60 4.80L52.60 4.80Q51.87 4.80 51.46 5.45L51.46 5.45L51.46 10.50L49.25 10.50L49.25 5.18L49.13 3.08L51.10 3.08L51.25 3.98L51.25 3.98Q52.02 2.90 53.48 2.90L53.48 2.90L53.48 2.90Q54.89 2.90 55.43 4.05L55.43 4.05L55.43 4.05Q56.21 2.90 57.71 2.90L57.71 2.90L57.71 2.90Q58.81 2.90 59.36 3.58L59.36 3.58L59.36 3.58Q59.91 4.27 59.91 5.39L59.91 5.39Z"></path></g><defs data-v-fde0c5aa=""><linearGradient data-v-fde0c5aa="" gradientTransform="rotate(25)" id="46895d83-e2ab-467a-81d2-4b5611bba4ca" x1="0%" y1="0%" x2="100%" y2="0%"><stop data-v-fde0c5aa="" offset="0%" stop-color="#EA1F59" stop-opacity="1"></stop><stop data-v-fde0c5aa="" offset="100%" stop-color="#FA9169" stop-opacity="1"></stop></linearGradient></defs><g data-v-fde0c5aa="" id="1da0d30b-a145-4478-8a5d-7d96ee1375e3" stroke="none" fill="url(#46895d83-e2ab-467a-81d2-4b5611bba4ca)" transform="matrix(0.6648960302572905,0,0,0.6648960302572905,40,121.60661774381809)"><path d="M100 42.672c0 4.26-1.67 8.128-4.385 11.008-.466 6.078-4.317 11.208-9.685 13.521v.057c-6.555 3.817-10.474 10.333-11.667 18.149h-6.061V67.275c.04-5.652 1.818-9.271 5.544-11.504 1.363-.784 2.602-1.681 3.658-2.675a12.632 12.632 0 0 1 6.771 5.714c.324.545.903.852 1.477.852.278 0 .568-.068.829-.222a1.677 1.677 0 0 0 .659-2.306h-.011c-1.744-3.102-4.396-5.391-7.407-6.754 1.545-2.375 2.403-5.203 2.363-8.6 0-.017.023-.034.023-.057 0-1.534-.227-3.027-.636-4.431a16.17 16.17 0 0 0 8.952-5 1.682 1.682 0 0 0-.114-2.397 1.686 1.686 0 0 0-2.38.108c-2 2.176-4.698 3.664-7.765 4.073-2.465-4.567-7.049-7.81-12.422-8.401a12.695 12.695 0 0 1 3.629-7.447 1.708 1.708 0 0 0 0-2.387 1.703 1.703 0 0 0-2.408 0 16.145 16.145 0 0 0-4.618 9.624c-6.311-.795-11.173-6.152-11.184-12.674 0-.926-.767-1.698-1.676-1.698-.96 0-1.71.772-1.71 1.698 0 1.102.108 2.153.318 3.187a12.743 12.743 0 0 1-8.35 3.114c-1.471 0-2.948-.261-4.339-.767l-.04-.011a12.579 12.579 0 0 1-4.652-2.967 1.7 1.7 0 0 0-2.397 0 1.685 1.685 0 0 0 0 2.393 16.292 16.292 0 0 0 4.646 3.249c-.335 4.22-2.789 7.85-6.22 9.889-1.982-3.011-4.964-5.396-8.628-6.561a1.714 1.714 0 0 0-2.153 1.102c-.25.892.205 1.841 1.108 2.119 2.721.863 4.908 2.539 6.481 4.675a12.56 12.56 0 0 1-3.294.437h-.206c-4.351 0-8.35 1.733-11.258 4.568a1.654 1.654 0 0 0-.028 2.392c.323.341.767.511 1.227.511.387 0 .812-.159 1.142-.477a12.71 12.71 0 0 1 8.918-3.607h.205c8.156 0 14.933-6.074 15.995-13.946a16.49 16.49 0 0 0 3.493.386c3.312 0 6.652-1.028 9.463-3.062 1.028 2.346 2.653 4.396 4.624 5.987a15.992 15.992 0 0 0-3.504 8.429 16.7 16.7 0 0 0-2.63-.21 16 16 0 0 0-7.566 1.898 1.697 1.697 0 0 0-.704 2.295 1.73 1.73 0 0 0 1.511.892c.278 0 .528-.062.772-.205 1.943-1.017 3.977-1.5 5.987-1.5.897 0 1.783.097 2.63.278a16.21 16.21 0 0 0 4.402 9.458c.341.353.778.523 1.216.523.415 0 .846-.154 1.182-.466.693-.653.71-1.716.051-2.392h-.011a12.862 12.862 0 0 1-3.544-8.52c0-.046.011-.08 0-.131v-.188a12.7 12.7 0 0 1 3.079-8.317 16.123 16.123 0 0 0 7.203 1.699s.011.005.028.005h.028c7.032.023 12.724 5.705 12.752 12.736a16.09 16.09 0 0 0-4.118-.534c-2.016 0-4.061.369-6.032 1.182a1.689 1.689 0 0 0-.937 2.204 1.688 1.688 0 0 0 2.198.932 12.84 12.84 0 0 1 4.771-.937c1.278 0 2.545.193 3.732.562-.415 1.897-1.227 3.419-2.488 4.771a1.422 1.422 0 0 0-.261.295c-.966.949-2.125 1.823-3.556 2.692-4.902 2.863-7.254 8.055-7.203 14.418v18.132h-5.783V68.161c0-6.333-3.97-12.339-8.969-14.475-2.386-.926-4.874-2.477-6.686-4.505a16.006 16.006 0 0 1-9.021 2.789 15.985 15.985 0 0 1-9.014-2.76 16.247 16.247 0 0 1-8.94 2.664C7.333 51.875 0 44.524 0 35.464c0-6.772 4.095-12.583 9.958-15.083 1.585-7.227 7.986-12.634 15.688-12.634.409 0 .784.034 1.165.057C29.714 3.561 34.593.777 40.12.777c2.738 0 5.306.682 7.561 1.897A15.943 15.943 0 0 1 56.546 0c4.209 0 8.043 1.642 10.917 4.306 1.204-.29 2.448-.46 3.749-.46 6.504 0 12.127 3.914 14.638 9.52 6.601 2 11.406 8.124 11.406 15.372 0 1.454-.193 2.857-.551 4.192A16.049 16.049 0 0 1 100 42.672z"></path></g><defs data-v-fde0c5aa=""><!----></defs><g data-v-fde0c5aa="" id="5cd2f315-7c3b-4d23-9a7a-aad800a26422" fill="#000000" transform="matrix(0.6760833168278182,0,0,0.6760833168278182,119.18536552106721,161.98572769816107)"><path d="M1.75 4.65C1.75 4.03 2.11 3.08 4.21 3.08C5.91 3.08 6.69 3.82 6.80 4.75L7.88 4.75C7.80 3.36 6.68 2.10 4.21 2.10C1.89 2.10 0.73 3.15 0.73 4.66C0.73 7.84 7.07 6.69 7.07 8.96C7.07 10.05 6.09 10.60 4.52 10.60C2.91 10.60 1.61 10.05 1.54 8.71L0.45 8.71C0.59 10.37 1.71 11.59 4.45 11.59C6.73 11.59 8.12 10.64 8.12 8.92C8.12 5.68 1.75 6.80 1.75 4.65ZM24.54 2.21L21.28 6.61L17.96 2.21L16.74 2.21L16.74 11.48L17.79 11.48L17.79 3.81L21.28 8.22L24.71 3.81L24.71 11.48L25.76 11.48L25.76 2.21ZM39.19 2.21L37.87 2.21L33.94 11.48L35.10 11.48L36.23 8.79L40.82 8.79L41.96 11.48L43.12 11.48ZM36.64 7.83L38.53 3.30L40.42 7.83ZM52.35 7.92L55.57 7.92L57.81 11.48L59.05 11.48L56.62 7.74C57.65 7.50 58.86 6.90 58.86 5.11C58.86 3.35 57.64 2.21 55.73 2.21L51.30 2.21L51.30 11.48L52.35 11.48ZM52.35 3.21L55.61 3.21C56.92 3.21 57.81 3.93 57.81 5.11C57.81 6.55 56.55 6.93 55.55 6.93L52.35 6.93ZM74.24 2.21L66.72 2.21L66.72 3.22L69.96 3.22L69.96 11.48L71.01 11.48L71.01 3.22L74.24 3.22ZM92.55 2.21L92.55 11.48L98.66 11.48L98.66 10.47L93.60 10.47L93.60 2.21ZM113.83 3.22L113.83 2.21L107.02 2.21L107.02 11.48L113.83 11.48L113.83 10.47L108.07 10.47L108.07 7.35L113.22 7.35L113.22 6.33L108.07 6.33L108.07 3.22ZM126.69 2.21L125.37 2.21L121.44 11.48L122.60 11.48L123.73 8.79L128.32 8.79L129.46 11.48L130.62 11.48ZM124.14 7.83L126.03 3.30L127.92 7.83ZM139.85 7.92L143.07 7.92L145.31 11.48L146.55 11.48L144.12 7.74C145.15 7.50 146.36 6.90 146.36 5.11C146.36 3.35 145.14 2.21 143.23 2.21L138.80 2.21L138.80 11.48L139.85 11.48ZM139.85 3.21L143.11 3.21C144.42 3.21 145.31 3.93 145.31 5.11C145.31 6.55 144.05 6.93 143.05 6.93L139.85 6.93ZM162.11 2.21L162.11 10.01L156.38 2.21L155.16 2.21L155.16 11.48L156.21 11.48L156.21 3.65L161.94 11.48L163.16 11.48L163.16 2.21ZM173.47 2.21L172.42 2.21L172.42 11.48L173.47 11.48ZM189.69 2.21L189.69 10.01L183.96 2.21L182.74 2.21L182.74 11.48L183.79 11.48L183.79 3.65L189.52 11.48L190.74 11.48L190.74 2.21ZM203.98 2.10C201.19 2.10 199.42 4.21 199.42 6.85C199.42 9.48 201.12 11.59 203.95 11.59C205.63 11.59 206.72 10.74 207.31 9.84L207.31 11.48L208.28 11.48L208.28 6.55L203.92 6.55L203.92 7.50L207.31 7.50C207.31 9.44 205.72 10.57 204.04 10.57C201.78 10.57 200.47 8.93 200.47 6.85C200.47 4.76 201.81 3.12 204.06 3.12C205.48 3.12 206.49 3.74 207.05 4.73L208.19 4.73C207.51 3.18 205.97 2.10 203.98 2.10Z"></path></g></svg>